# xmcd CD database file
#
# Track frame offsets:
#	150
#	12452
#	22990
#	36055
#	50095
#	59570
#	76427
#	92717
#	111780
#	125902
#	150122
#	164350
#	169637
#	175565
#	187282
#	193567
#
# Disc length: 2753 seconds
#
# Revision: 4
# Processed by: cddbd v1.5.2PL0 Copyright (c) Steve Scherf et al.
# Submitted via: CDex 1.85
#
DISCID=cf0abf10
DTITLE=Devil Doll - Dies Irae
DYEAR=1996
DGENRE=Horror-Prog
TTITLE0=Dies Irae Part 1
TTITLE1=Dies Irae Part 2
TTITLE2=Dies Irae Part 3
TTITLE3=Dies Irae Part 4
TTITLE4=Dies Irae Part 5
TTITLE5=Dies Irae Part 6
TTITLE6=Dies Irae Part 7
TTITLE7=Dies Irae Part 8
TTITLE8=Dies Irae Part 9
TTITLE9=Dies Irae Part 10
TTITLE10=Dies Irae Part 11
TTITLE11=Dies Irae Part 12
TTITLE12=Dies Irae Part 13
TTITLE13=Dies Irae Part 14
TTITLE14=Dies Irae Part 15
TTITLE15=Dies Irae Part 16
EXTD=YEAR: 1996
EXTT0=
EXTT1=
EXTT2=
EXTT3=
EXTT4=
EXTT5=
EXTT6=
EXTT7=
EXTT8=
EXTT9=
EXTT10=
EXTT11=
EXTT12=
EXTT13=
EXTT14=
EXTT15=
PLAYORDER=
